<?xml version="1.0" encoding="UTF-8"?>
<svg version="1.1" xmlns="http://www.w3.org/2000/svg" width="512" height="512">
<path d="M0 0 C168.96 0 337.92 0 512 0 C512 168.96 512 337.92 512 512 C343.04 512 174.08 512 0 512 C0 343.04 0 174.08 0 0 Z " fill="#FEFEFE" transform="translate(0,0)"/>
<path d="M0 0 C11.13898896 9.38678845 18.55723653 22.95675168 20.75 37.3125 C21.68141267 51.13815679 19.99629752 61.8039359 13.49414062 73.91967773 C11.3201684 77.88646498 11.3201684 77.88646498 10.75 82.3125 C11.29076172 82.58288086 11.83152344 82.85326172 12.38867188 83.13183594 C21.25651042 87.56575521 30.12434896 91.99967448 38.9921875 96.43359375 C40.00888016 96.94188721 41.02557281 97.45018066 42.07307434 97.97387695 C44.10310174 98.98899722 46.13295894 100.00445794 48.16264343 101.02026367 C52.65638638 103.26883043 57.15163574 105.51398845 61.65551758 107.7421875 C62.39056519 108.10675049 63.12561279 108.47131348 63.88293457 108.84692383 C65.21108872 109.50525555 66.54026219 110.16153727 67.87072754 110.81518555 C77.06045684 115.37668731 82.17773217 120.16796434 86.75 129.3125 C87.58317146 135.71601775 86.96002063 140.34977521 83.16796875 145.62890625 C77.13991346 152.78618402 69.28930401 154.66065532 60.45703125 156.03125 C58.67511636 156.32673943 56.89321574 156.62231488 55.11132812 156.91796875 C52.32710353 157.36874562 49.54230853 157.81572262 46.75708008 158.26025391 C44.05126027 158.69533433 41.34793946 159.14396568 38.64453125 159.59375 C37.8121846 159.72197144 36.97983795 159.85019287 36.12226868 159.9822998 C30.25625969 160.81542653 30.25625969 160.81542653 25.75 164.3125 C24.97530994 169.87326606 26.37558989 173.33969513 29.01171875 178.1875 C29.3534613 178.82489105 29.69520386 179.4622821 30.04730225 180.11898804 C31.16335171 182.19144062 32.29995523 184.25178005 33.4375 186.3125 C34.22447194 187.76324753 35.01034989 189.21458901 35.79516602 190.66650391 C40.64871604 199.61541804 45.6344598 208.48878666 50.69702148 217.32104492 C75.93610296 261.60462602 75.93610296 261.60462602 74.75 272.3125 C72.18403309 277.44443382 68.67221531 280.9065242 63.49229431 283.39875793 C60.3132978 284.4580107 57.66046757 284.61480136 54.31079102 284.68237305 C53.02918594 284.71127121 51.74758087 284.74016937 50.42713928 284.76994324 C49.03608277 284.78959519 47.64500288 284.80764799 46.25390625 284.82421875 C45.54886396 284.83361795 44.84382168 284.84301716 44.11741447 284.85270119 C40.38876949 284.90014729 36.66026272 284.93388283 32.93139648 284.95776367 C29.0891627 284.98552048 25.24976205 285.06476384 21.40857029 285.15530682 C18.44447274 285.21519871 15.48104918 285.23503608 12.51640129 285.24427223 C11.10048737 285.25582911 9.68460945 285.28261143 8.26928902 285.32520103 C-2.72427029 285.63653708 -2.72427029 285.63653708 -6.32803345 282.50917053 C-7.91036543 280.18057023 -9.09038545 277.87484797 -10.25 275.3125 C-11.01022409 274.03570365 -11.78601425 272.76799321 -12.58007812 271.51196289 C-13.3162883 270.27116581 -14.04996313 269.02886133 -14.78125 267.78515625 C-15.18025513 267.11133408 -15.57926025 266.4375119 -15.99035645 265.74327087 C-17.24590539 263.62188381 -18.49806974 261.4985242 -19.75 259.375 C-20.58700341 257.95884476 -21.42424159 256.54282825 -22.26171875 255.12695312 C-22.87406372 254.09059219 -22.87406372 254.09059219 -23.4987793 253.03329468 C-24.30523906 251.67111281 -25.11395856 250.31026598 -25.92504883 248.95083618 C-27.66442566 246.03069428 -29.35828702 243.11115382 -30.96875 240.11669922 C-31.46375 239.21064941 -31.95875 238.30459961 -32.46875 237.37109375 C-32.87029297 236.59950928 -33.27183594 235.8279248 -33.68554688 235.03295898 C-35.92245624 232.57298703 -38.02931363 232.593225 -41.25 232.3125 C-46.97667237 240.11490709 -51.87390756 248.30944615 -56.6875 256.6875 C-70.30002293 280.36252293 -70.30002293 280.36252293 -74.25 284.3125 C-76.23199353 284.42760798 -78.21811142 284.47218199 -80.20336914 284.48950195 C-82.11654686 284.50875481 -82.11654686 284.50875481 -84.06837463 284.52839661 C-85.47396456 284.5365674 -86.87955888 284.54401048 -88.28515625 284.55078125 C-88.99137053 284.55485678 -89.6975848 284.5589323 -90.42519951 284.56313133 C-94.1691242 284.58402325 -97.91301198 284.59830661 -101.65698242 284.60766602 C-105.51155764 284.6186866 -109.36554852 284.65302587 -113.21991825 284.69283772 C-116.1926525 284.71909484 -119.16525014 284.72736625 -122.13809013 284.73094749 C-123.55776312 284.73579669 -124.9774307 284.7473629 -126.39698982 284.76598549 C-134.41901272 284.8646091 -140.45474287 284.80807813 -147.25 280.3125 C-150.19400731 277.29101881 -152.22353261 274.41836958 -153.25 270.3125 C-153.05788988 262.23587046 -150.27720346 256.63408674 -146.4375 249.625 C-145.85218506 248.52921631 -145.26687012 247.43343262 -144.66381836 246.30444336 C-142.87473728 242.96513063 -141.06512249 239.63771611 -139.25 236.3125 C-138.23669841 234.44286047 -137.223661 232.57307773 -136.2109375 230.703125 C-134.27127987 227.13140773 -132.32047909 223.56603843 -130.36328125 220.00390625 C-126.866079 213.6297008 -123.43562032 207.22003729 -120 200.8125 C-115.65795367 192.71776113 -111.25556783 184.67593006 -106.60546875 176.75390625 C-104.25477451 172.51994689 -103.7344575 169.12422998 -104.25 164.3125 C-108.48048046 160.80993622 -113.49772385 160.27489416 -118.75 159.375 C-119.66547607 159.20661621 -120.58095215 159.03823242 -121.52416992 158.86474609 C-126.34758962 157.98028108 -131.17817351 157.15870565 -136.01953125 156.37890625 C-137.41365234 156.14192017 -137.41365234 156.14192017 -138.8359375 155.90014648 C-140.60230484 155.6004271 -142.37187684 155.31880262 -144.14453125 155.05883789 C-151.73742096 153.74855382 -156.24059242 150.19293297 -161.7109375 144.95703125 C-163.80669839 141.35593957 -163.93626192 138.06148795 -163.875 134 C-163.86025635 132.86050903 -163.86025635 132.86050903 -163.84521484 131.69799805 C-163.63067901 126.58709449 -163.02853852 122.76295366 -159.25990295 119.02159119 C-152.52854881 113.29768396 -144.02518578 109.55554067 -136.16015625 105.65234375 C-135.13498398 105.13998672 -134.10981171 104.6276297 -133.05357361 104.0997467 C-130.90067872 103.02479951 -128.74682033 101.95178001 -126.59204102 100.88061523 C-123.32272001 99.25508148 -120.05664415 97.62317139 -116.79101562 95.99023438 C-114.68508394 94.93972699 -112.57897012 93.88958462 -110.47265625 92.83984375 C-109.51085953 92.3595018 -108.54906281 91.87915985 -107.55812073 91.38426208 C-101.18342664 88.21883018 -94.74741948 85.21748556 -88.25 82.3125 C-89.37402445 80.05963858 -90.50598071 77.8119472 -91.65234375 75.5703125 C-99.84521084 58.85102649 -101.41754692 42.90475165 -95.88720703 25.16650391 C-92.73526467 15.99568005 -87.01300803 9.09949033 -80.25 2.3125 C-79.70859375 1.74789062 -79.1671875 1.18328125 -78.609375 0.6015625 C-56.89034865 -20.13023538 -22.70255375 -16.89733452 0 0 Z " fill="#DC2846" transform="translate(163.25,114.6875)"/>
<path d="M0 0 C0.62519531 0.350625 1.25039062 0.70125 1.89453125 1.0625 C8.33079699 5.10094125 12.69026624 11.82932657 15 19 C15.99629048 28.1763597 15.70455812 36.38931834 10 44 C4.91936321 49.70894582 -0.59308346 53.22758335 -8.1875 54.3125 C-14.10767702 54.64139872 -19.01660307 53.20361232 -24 50 C-28.72076593 45.74324098 -31.64503031 41.29791606 -32.3359375 34.87890625 C-32.46750307 23.70898972 -32.46750307 23.70898972 -28 19 C-22.97164967 14.5702628 -20.11834709 13.69983412 -13.5390625 13.78515625 C-8.66767875 14.19735026 -5.90687564 15.99508375 -2.6875 19.5625 C-0.07185697 23.34065104 0.09964161 25.41648602 0 30 C-2.475 30.495 -2.475 30.495 -5 31 C-5.24234375 30.44570312 -5.4846875 29.89140625 -5.734375 29.3203125 C-6.06953125 28.59585938 -6.4046875 27.87140625 -6.75 27.125 C-7.07484375 26.40570313 -7.3996875 25.68640625 -7.734375 24.9453125 C-9.25659087 22.60561033 -10.38670445 21.92349542 -13 21 C-17.00022687 21.14286525 -19.24332729 21.38271437 -22.375 23.9375 C-25.64828766 28.09205742 -25.47207303 31.8695459 -25 37 C-23.42044437 41.18117666 -20.92675453 43.21983905 -16.953125 45.2734375 C-11.47534489 47.3111717 -6.05586541 46.22587125 -0.82421875 44.046875 C3.03453725 41.8324283 5.09286042 38.55509642 7.3125 34.75 C9.20584527 27.17661894 8.3487604 21.08209495 4.5546875 14.265625 C0.72335475 8.68227577 -3.47526336 5.77657664 -10 4 C-18.99106788 2.98797222 -26.58479222 3.54803149 -34 9 C-40.32728746 14.4982787 -44.1782588 21.30711248 -45.37890625 29.625 C-45.82379804 39.49872756 -43.04350218 49.68760687 -36.6171875 57.296875 C-36.08351563 57.85890625 -35.54984375 58.4209375 -35 59 C-34.23042969 59.81210938 -34.23042969 59.81210938 -33.4453125 60.640625 C-25.82738767 67.85760642 -16.18964522 70.67948505 -6 72 C-6 74.31 -6 76.62 -6 79 C-19.48635855 77.91239044 -31.15582685 73.62541375 -41 64 C-50.4266425 52.60515742 -53.24348674 41.56074079 -52.23632812 27.03662109 C-51.71951699 22.58286237 -50.21599805 18.8569101 -48 15 C-47.401875 13.948125 -46.80375 12.89625 -46.1875 11.8125 C-35.12551087 -2.41005745 -16.7137906 -9.98230322 0 0 Z " fill="#FDF7F8" transform="translate(142,131)"/>
<path d="M0 0 C3.3 0 6.6 0 10 0 C11.46495337 2.53804678 12.92204322 5.08009717 14.375 7.625 C14.7875 8.33785156 15.2 9.05070313 15.625 9.78515625 C17.89491074 13.77580578 19.72465011 17.55729762 21 22 C21.66 22 22.32 22 23 22 C23.23460937 21.35675781 23.46921875 20.71351563 23.7109375 20.05078125 C25.43907684 15.96085148 27.52724917 12.09783866 29.625 8.1875 C30.04523438 7.39923828 30.46546875 6.61097656 30.8984375 5.79882812 C31.9299946 3.86465856 32.96468554 1.93216094 34 0 C37.3 0 40.6 0 44 0 C44 14.52 44 29.04 44 44 C41.03 44 38.06 44 35 44 C34.505 31.625 34.505 31.625 34 19 C31.36 23.62 28.72 28.24 26 33 C23.36 33 20.72 33 18 33 C15.36 28.05 12.72 23.1 10 18 C9.67 26.58 9.34 35.16 9 44 C6.03 44 3.06 44 0 44 C0 29.48 0 14.96 0 0 Z " fill="#565757" transform="translate(262,190)"/>
<path d="M0 0 C3.3 0 6.6 0 10 0 C11.83844441 3.28890543 13.6709346 6.58088468 15.5 9.875 C16.02464844 10.81214844 16.54929687 11.74929688 17.08984375 12.71484375 C17.58613281 13.61074219 18.08242188 14.50664062 18.59375 15.4296875 C19.05458984 16.25710449 19.51542969 17.08452148 19.99023438 17.93701172 C21 20 21 20 21 22 C21.66 22 22.32 22 23 22 C23.23460937 21.35675781 23.46921875 20.71351563 23.7109375 20.05078125 C25.43907684 15.96085148 27.52724917 12.09783866 29.625 8.1875 C30.04523438 7.39923828 30.46546875 6.61097656 30.8984375 5.79882812 C31.9299946 3.86465856 32.96468554 1.93216094 34 0 C37.3 0 40.6 0 44 0 C44 14.52 44 29.04 44 44 C41.03 44 38.06 44 35 44 C34.505 31.625 34.505 31.625 34 19 C31.36 23.62 28.72 28.24 26 33 C23.36 33 20.72 33 18 33 C15.36 28.05 12.72 23.1 10 18 C9.67 26.58 9.34 35.16 9 44 C6.03 44 3.06 44 0 44 C0 29.48 0 14.96 0 0 Z " fill="#565757" transform="translate(262,246)"/>
<path d="M0 0 C2.64 0 5.28 0 8 0 C8.33 0.99 8.66 1.98 9 3 C9.82371094 2.27103516 9.82371094 2.27103516 10.6640625 1.52734375 C14.77889136 -1.16312127 19.25860635 -0.61245869 24 0 C28.92006067 2.32584686 31.31231435 5.32143608 34 10 C36.08067176 16.24201529 35.04354995 21.20195259 32.27734375 26.98046875 C29.77596811 30.93524307 26.308102 32.563966 22 34 C14.69565217 34.34782609 14.69565217 34.34782609 10 32 C9.67 36.95 9.34 41.9 9 47 C6.03 47 3.06 47 0 47 C0 31.49 0 15.98 0 0 Z " fill="#5A5B5B" transform="translate(391,201)"/>
<path d="M0 0 C2.64 0 5.28 0 8 0 C8 15.84 8 31.68 8 48 C5.36 48 2.72 48 0 48 C-0.33 47.34 -0.66 46.68 -1 46 C-1.825 46.495 -2.65 46.99 -3.5 47.5 C-7.58327907 49.24997675 -10.62858508 49.78685469 -15 49 C-20.29112204 46.25268663 -24.09375244 42.71874267 -26 37 C-26.48768871 31.45953648 -26.74334535 26.60105152 -24.375 21.5 C-21.06717191 18.01807569 -18.47906479 15.31380567 -13.53125 14.6875 C-9.15414981 14.58450941 -5.79391371 14.62248074 -2 17 C-1.67 17.66 -1.34 18.32 -1 19 C-0.67 12.73 -0.34 6.46 0 0 Z " fill="#575858" transform="translate(402,242)"/>
<path d="M0 0 C3.4375 1.875 3.4375 1.875 6 4 C6 4.66 6 5.32 6 6 C6.66 6 7.32 6 8 6 C8.33 5.01 8.66 4.02 9 3 C13.40836439 0.16605147 16.80042415 -0.56722646 22 0 C25.70439622 1.68381646 27.90503817 3.52658818 30 7 C30.34057617 9.93261719 30.34057617 9.93261719 30.29296875 13.296875 C30.2784668 15.10478516 30.2784668 15.10478516 30.26367188 16.94921875 C30.23853516 18.20347656 30.21339844 19.45773437 30.1875 20.75 C30.16719727 22.65458984 30.16719727 22.65458984 30.14648438 24.59765625 C30.1111324 27.73219844 30.06178248 30.86588545 30 34 C27.36 34 24.72 34 22 34 C21.98541748 33.34926514 21.97083496 32.69853027 21.95581055 32.02807617 C21.88135451 29.08061694 21.78468734 26.13429358 21.6875 23.1875 C21.65366211 21.65125977 21.65366211 21.65125977 21.61914062 20.08398438 C21.58369141 19.10107422 21.54824219 18.11816406 21.51171875 17.10546875 C21.48553467 16.19949951 21.45935059 15.29353027 21.43237305 14.36010742 C21.16463254 11.9569798 21.16463254 11.9569798 19.69458008 10.16918945 C17.8447211 8.63870941 17.8447211 8.63870941 14.375 9.1875 C13.26125 9.455625 12.1475 9.72375 11 10 C9.76939579 12.46120841 9.7942277 14.25776866 9.68359375 17.0078125 C9.64169922 17.99394531 9.59980469 18.98007812 9.55664062 19.99609375 C9.51732422 21.02863281 9.47800781 22.06117188 9.4375 23.125 C9.39431641 24.16527344 9.35113281 25.20554687 9.30664062 26.27734375 C9.2003712 28.85142528 9.09833417 31.42560508 9 34 C6.03 34 3.06 34 0 34 C-0.01981934 33.31373535 -0.03963867 32.6274707 -0.06005859 31.92041016 C-0.15510945 28.82154221 -0.26486847 25.72336706 -0.375 22.625 C-0.4059375 21.54476563 -0.436875 20.46453125 -0.46875 19.3515625 C-0.50742187 18.3203125 -0.54609375 17.2890625 -0.5859375 16.2265625 C-0.63306885 14.79691162 -0.63306885 14.79691162 -0.68115234 13.33837891 C-0.78555796 10.81104824 -0.78555796 10.81104824 -3 9 C-6 8.66666667 -6 8.66666667 -9 9 C-11.56136221 11.56136221 -11.29666857 12.66561331 -11.4140625 16.2265625 C-11.47207031 17.7734375 -11.47207031 17.7734375 -11.53125 19.3515625 C-11.5621875 20.43179687 -11.593125 21.51203125 -11.625 22.625 C-11.68300781 24.25695312 -11.68300781 24.25695312 -11.7421875 25.921875 C-11.83666247 28.61441165 -11.92222431 31.30693757 -12 34 C-14.97 34 -17.94 34 -21 34 C-21 23.11 -21 12.22 -21 1 C-18.36 1 -15.72 1 -13 1 C-12.67 1.66 -12.34 2.32 -12 3 C-11.319375 2.505 -10.63875 2.01 -9.9375 1.5 C-6.25859625 -0.37858915 -4.0908775 -0.50238846 0 0 Z " fill="#585959" transform="translate(367,312)"/>
<path d="M0 0 C0 2.97 0 5.94 0 9 C-0.886875 8.67 -1.77375 8.34 -2.6875 8 C-8.63672965 6.33664395 -16.45463565 5.25648444 -22.13671875 8.05078125 C-24.25296472 9.78784514 -25.77401561 11.54803121 -27 14 C-27.82902134 22.12555165 -27.82902134 22.12555165 -25.25 29.625 C-22.14867086 32.8986252 -20.31210482 33.92076662 -15.765625 34.1953125 C-14.60546875 34.17210937 -13.4453125 34.14890625 -12.25 34.125 C-11.07953125 34.10695313 -9.9090625 34.08890625 -8.703125 34.0703125 C-7.81109375 34.04710937 -6.9190625 34.02390625 -6 34 C-6 31.36 -6 28.72 -6 26 C-9.63 26 -13.26 26 -17 26 C-17 23.36 -17 20.72 -17 18 C-10.4 18 -3.8 18 3 18 C3 24.93 3 31.86 3 39 C-5.44256858 43.22128429 -12.64378602 43.99736291 -22 43 C-28.34140748 40.66539266 -32.94278519 37.11442962 -36 31 C-38.7284976 24.99730528 -39.14812203 18.63126969 -37.16015625 12.34375 C-33.87802691 5.00592549 -29.28545624 1.04956603 -22.125 -2.375 C-14.04481487 -3.99103703 -7.62472868 -2.95150788 0 0 Z " fill="#5B5C5C" transform="translate(297,303)"/>
<path d="M0 0 C4.45411364 2.1098433 7.19291449 4.38189258 9 9 C9 12.3 9 15.6 9 19 C1.74 19 -5.52 19 -13 19 C-12.67 20.65 -12.34 22.3 -12 24 C-5.75547107 26.08150964 1.63224179 25.37681259 8 24 C8 26.31 8 28.62 8 31 C2.00373589 34.19800753 -3.24778989 34.73549036 -10 34 C-15.97599938 32.00800021 -19.35988116 28.04593498 -22.3125 22.5625 C-23.92443155 16.55439149 -23.12505402 12.14089101 -20.21484375 6.796875 C-15.14656638 -0.69961243 -8.2826404 -0.77954263 0 0 Z " fill="#59595A" transform="translate(336,201)"/>
<path d="M0 0 C4.45411364 2.1098433 7.19291449 4.38189258 9 9 C9 12.3 9 15.6 9 19 C1.74 19 -5.52 19 -13 19 C-11.23148964 22.18074165 -11.23148964 22.18074165 -9 25 C-3.28341698 25.33111384 2.39018566 25.21293283 8 24 C8 26.31 8 28.62 8 31 C2.04269116 34.17723138 -3.28387222 34.89020839 -10 34 C-15.57236092 32.09123548 -19.38787277 28.22425446 -22 23 C-22.67702068 16.08471739 -23.13477603 9.9461065 -18.58203125 4.3671875 C-12.77635601 -0.65006271 -7.42222457 -0.90514934 0 0 Z " fill="#595959" transform="translate(471,201)"/>
<path d="M0 0 C1.03769531 -0.02578125 2.07539063 -0.0515625 3.14453125 -0.078125 C7.48577988 0.38999424 10.09674747 2.046411 13 5.25 C14.1875 8.25 14.1875 8.25 14.1875 19.25 C6.9275 19.25 -0.3325 19.25 -7.8125 19.25 C-5.48998574 24.13495525 -5.48998574 24.13495525 -2.8125 25.25 C2.59236458 25.5805133 7.88014005 25.36733894 13.1875 24.25 C13.1875 26.56 13.1875 28.87 13.1875 31.25 C7.68797835 34.81725728 2.53345151 35.05112012 -3.8125 34.25 C-8.51543217 32.86494344 -11.19072585 31.03120342 -14.25 27.1875 C-16.93285498 22.14373265 -17.48600382 17.87188604 -16.8125 12.25 C-13.94140043 4.24524956 -8.23698523 0.12187894 0 0 Z " fill="#595959" transform="translate(367.8125,200.75)"/>
<path d="M0 0 C3.5538035 1.89983206 5.47108147 3.53316194 6.92578125 7.24609375 C7.24462891 9.35253906 7.24462891 9.35253906 7.33984375 11.57421875 C7.37851562 12.3734375 7.4171875 13.17265625 7.45703125 13.99609375 C7.48796875 14.82109375 7.51890625 15.64609375 7.55078125 16.49609375 C7.58945312 17.3365625 7.628125 18.17703125 7.66796875 19.04296875 C7.76193961 21.11032757 7.84493689 23.17818002 7.92578125 25.24609375 C8.58578125 25.57609375 9.24578125 25.90609375 9.92578125 26.24609375 C9.92578125 28.55609375 9.92578125 30.86609375 9.92578125 33.24609375 C3.52578125 33.61532452 3.52578125 33.61532452 0.48828125 31.74609375 C-0.02734375 31.25109375 -0.54296875 30.75609375 -1.07421875 30.24609375 C-1.89599609 30.973125 -1.89599609 30.973125 -2.734375 31.71484375 C-6.85957033 34.41447074 -11.32716363 33.96938765 -16.07421875 33.24609375 C-19.26171875 31.30859375 -19.26171875 31.30859375 -21.07421875 28.24609375 C-21.7538831 25.08765355 -21.79964886 22.3991443 -21.07421875 19.24609375 C-18.54453401 15.96434057 -16.99690544 14.55365598 -13.07421875 13.24609375 C-11.01276768 13.17710275 -8.94920474 13.16141648 -6.88671875 13.18359375 C-5.25669922 13.19712891 -5.25669922 13.19712891 -3.59375 13.2109375 C-2.76230469 13.22253906 -1.93085938 13.23414063 -1.07421875 13.24609375 C-1.40421875 11.59609375 -1.73421875 9.94609375 -2.07421875 8.24609375 C-10.76346457 7.92932532 -10.76346457 7.92932532 -19.07421875 10.24609375 C-19.38671875 6.93359375 -19.38671875 6.93359375 -19.07421875 3.24609375 C-13.77556916 -1.05010862 -6.46155288 -2.34854935 0 0 Z " fill="#575858" transform="translate(329.07421875,312.75390625)"/>
<path d="M0 0 C3.03296022 2.68029043 4.89798625 4.72714505 6.6875 8.375 C6.6875 11.345 6.6875 14.315 6.6875 17.375 C-0.5725 17.375 -7.8325 17.375 -15.3125 17.375 C-13.88863701 22.15479216 -13.88863701 22.15479216 -11.625 23.6875 C-5.61684182 25.47370919 -0.14923158 24.01338079 5.6875 22.375 C5.6875 25.015 5.6875 27.655 5.6875 30.375 C-1.10104288 32.92708379 -8.49683216 33.76637808 -15.5703125 31.72265625 C-19.19724122 29.8934909 -21.8398193 27.19930157 -23.65234375 23.56640625 C-25.45663529 17.57701244 -25.33245887 11.49047025 -22.625 5.875 C-16.24010816 -1.02758577 -8.92942716 -4.3804737 0 0 Z " fill="#585959" transform="translate(429.3125,313.625)"/>
<path d="M0 0 C2.95665356 1.23193898 4.39185897 2.05483302 6.11279297 4.72949219 C7.24555346 7.62841143 7.22580163 9.96823383 7.1953125 13.078125 C7.18886719 14.23828125 7.18242187 15.3984375 7.17578125 16.59375 C7.15902344 17.8003125 7.14226562 19.006875 7.125 20.25 C7.11597656 21.47203125 7.10695313 22.6940625 7.09765625 23.953125 C7.07409513 26.96894782 7.04119706 29.98437492 7 33 C4.36 33 1.72 33 -1 33 C-1.01981934 32.37955811 -1.03963867 31.75911621 -1.06005859 31.11987305 C-1.15531845 28.30865463 -1.26499302 25.49817834 -1.375 22.6875 C-1.4059375 21.71103516 -1.436875 20.73457031 -1.46875 19.72851562 C-1.50742187 18.79072266 -1.54609375 17.85292969 -1.5859375 16.88671875 C-1.6173584 16.02264404 -1.6487793 15.15856934 -1.68115234 14.26831055 C-1.87188037 11.72257555 -1.87188037 11.72257555 -4 9 C-8.60449156 8.41173339 -8.60449156 8.41173339 -12.69067383 10.21801758 C-14.39214047 12.53370004 -14.42511464 14.02878311 -14.51171875 16.88671875 C-14.54716797 17.82451172 -14.58261719 18.76230469 -14.61914062 19.72851562 C-14.65297852 21.19321289 -14.65297852 21.19321289 -14.6875 22.6875 C-14.72166016 23.67556641 -14.75582031 24.66363281 -14.79101562 25.68164062 C-14.87350538 28.12098053 -14.94265068 30.55996063 -15 33 C-17.64 33 -20.28 33 -23 33 C-23 22.44 -23 11.88 -23 1 C-20.36 1 -17.72 1 -15 1 C-14.67 1.66 -14.34 2.32 -14 3 C-13.44183594 2.51273437 -12.88367188 2.02546875 -12.30859375 1.5234375 C-8.44697682 -1.02483763 -4.47208807 -0.53636064 0 0 Z " fill="#535454" transform="translate(361,257)"/>
<path d="M0 0 C0.61875 0.33 1.2375 0.66 1.875 1 C1.875 3.64 1.875 6.28 1.875 9 C1.31296875 8.83628906 0.7509375 8.67257812 0.171875 8.50390625 C-2.25559056 7.97135003 -4.39389681 7.90101319 -6.875 7.9375 C-8.07382812 7.95103516 -8.07382812 7.95103516 -9.296875 7.96484375 C-9.90015625 7.97644531 -10.5034375 7.98804688 -11.125 8 C-10.795 8.99 -10.465 9.98 -10.125 11 C-7.93184767 12.10236511 -7.93184767 12.10236511 -5.3125 12.9375 C1.83965785 15.66944012 1.83965785 15.66944012 3.875 19 C4.48589984 23.81083621 4.61357492 25.8428993 2 29.9375 C-1.60068931 33.43228668 -4.06313109 33.1618406 -9 33.1875 C-10.23492187 33.20167969 -11.46984375 33.21585937 -12.7421875 33.23046875 C-15.86586712 33.01765455 -17.52561596 32.65237226 -20.125 31 C-20.125 28.36 -20.125 25.72 -20.125 23 C-19.320625 23.33 -18.51625 23.66 -17.6875 24 C-13.38695205 25.20717135 -9.55533819 25.17721353 -5.125 25 C-5.125 24.01 -5.125 23.02 -5.125 22 C-5.95644531 21.68546875 -6.78789062 21.3709375 -7.64453125 21.046875 C-8.73121094 20.61890625 -9.81789063 20.1909375 -10.9375 19.75 C-12.55591797 19.12351562 -12.55591797 19.12351562 -14.20703125 18.484375 C-17.23736437 16.94284008 -18.49901951 15.94674279 -20.125 13 C-20.76721857 7.94252874 -20.76721857 7.94252874 -20.125 5 C-14.66864502 -1.74864958 -8.14267397 -2.60565567 0 0 Z " fill="#585959" transform="translate(463.125,313)"/>
<path d="M0 0 C2.64 0 5.28 0 8 0 C8 15.51 8 31.02 8 47 C5.36 47 2.72 47 0 47 C0 31.49 0 15.98 0 0 Z " fill="#535353" transform="translate(433,187)"/>
<path d="M0 0 C2.97 0 5.94 0 9 0 C9 10.89 9 21.78 9 33 C6.03 33 3.06 33 0 33 C0 22.11 0 11.22 0 0 Z " fill="#5D5D5D" transform="translate(318,257)"/>
<path d="M0 0 C3.56428457 3.00984031 5.83142263 5.10350462 6.25 9.8125 C5.96929042 13.39154719 5.12271416 15.14250017 3 18 C-0.20792917 19.60396458 -3.51974805 19.47551957 -7 19 C-9.67298737 17.3550847 -10.66006077 16.13077009 -11.5625 13.12890625 C-12.21266777 9.54621092 -12.22339916 7.51381806 -10.75 4.125 C-7.50314969 0.18239605 -4.97398609 -0.69635805 0 0 Z " fill="#F9F9F9" transform="translate(411,208)"/>
<path d="M0 0 C1.32 0.33 2.64 0.66 4 1 C4.50471197 2.76949612 5.00360685 4.54065223 5.5 6.3125 C5.7784375 7.29863281 6.056875 8.28476562 6.34375 9.30078125 C7 12 7 12 7 15 C7.66 15 8.32 15 9 15 C9.1546875 13.515 9.1546875 13.515 9.3125 12 C9.90808706 7.71702837 11.38595027 4.00003629 13 0 C14.859375 0.08984375 14.859375 0.08984375 17 1 C18.81454588 5.21713904 19.79235998 9.55760991 21 14 C22.65 9.38 24.3 4.76 26 0 C26.99 0 27.98 0 29 0 C27.47536437 7.49612516 25.31993846 14.71359134 23 22 C21.140625 21.91015625 21.140625 21.91015625 19 21 C17.734375 18.05859375 17.734375 18.05859375 16.75 14.4375 C16.41484375 13.23996094 16.0796875 12.04242188 15.734375 10.80859375 C15.49203125 9.88175781 15.2496875 8.95492188 15 8 C12.99006295 11.01490557 12.27376659 13.2149927 11.375 16.6875 C11.11460937 17.68136719 10.85421875 18.67523438 10.5859375 19.69921875 C10.39257812 20.45847656 10.19921875 21.21773438 10 22 C8.68 22 7.36 22 6 22 C4.9929564 18.8980736 3.99559195 15.79311902 3 12.6875 C2.71382813 11.80642578 2.42765625 10.92535156 2.1328125 10.01757812 C1.86210937 9.17001953 1.59140625 8.32246094 1.3125 7.44921875 C1.06113281 6.66893311 0.80976563 5.88864746 0.55078125 5.0847168 C0 3 0 3 0 0 Z " fill="#DC324B" transform="translate(435,365)"/>
<path d="M0 0 C2.375 1.4375 2.375 1.4375 4 4 C4.753484 8.62085599 4.86469023 12.54732041 2.4375 16.625 C-1.00651901 18.56777996 -3.10540274 18.61493641 -7 18 C-9.9375 16.0625 -9.9375 16.0625 -12 13 C-12.63396319 9.87467269 -12.64809361 7.12369445 -12 4 C-8.40851495 -0.78864673 -5.71042967 -1.48471171 0 0 Z " fill="#FBFBFB" transform="translate(397,265)"/>
<path d="M0 0 C10 0 10 0 13.1875 1.5625 C15 4 15 4 15.0625 7.5625 C14 11 14 11 12.3125 12.9375 C9.40913094 14.27148038 7.15869424 14.21536552 4 14 C4 16.64 4 19.28 4 22 C2.68 22 1.36 22 0 22 C0 14.74 0 7.48 0 0 Z " fill="#DF3952" transform="translate(359,365)"/>
<path d="M0 0 C0.99 0.66 1.98 1.32 3 2 C3.29296875 4.6015625 3.29296875 4.6015625 3.1875 7.625 C3.16042969 8.62789063 3.13335937 9.63078125 3.10546875 10.6640625 C3.07066406 11.43492187 3.03585937 12.20578125 3 13 C3.66 13 4.32 13 5 13 C5 13.99 5 14.98 5 16 C3.06318839 16.08107583 1.1254066 16.13922475 -0.8125 16.1875 C-1.89144531 16.22230469 -2.97039062 16.25710938 -4.08203125 16.29296875 C-7 16 -7 16 -8.89453125 14.6484375 C-10 13 -10 13 -9.875 10.4375 C-9 8 -9 8 -6 6 C-2.8125 5.875 -2.8125 5.875 0 6 C-0.33 5.34 -0.66 4.68 -1 4 C-3.64 4 -6.28 4 -9 4 C-9 3.01 -9 2.02 -9 1 C-5.98131566 -0.50934217 -3.32702771 -0.17510672 0 0 Z " fill="#DC2F49" transform="translate(395,371)"/>
<path d="M0 0 C1.32 0 2.64 0 4 0 C4.33 3.96 4.66 7.92 5 12 C6.32 10.35 7.64 8.7 9 7 C10.32 7.33 11.64 7.66 13 8 C11.35 10.31 9.7 12.62 8 15 C9.98 17.64 11.96 20.28 14 23 C10.32579134 22.69381595 9.21864487 22.24228216 6.6875 19.4375 C6.130625 18.633125 5.57375 17.82875 5 17 C4.67 18.98 4.34 20.96 4 23 C2.68 23 1.36 23 0 23 C0 15.41 0 7.82 0 0 Z " fill="#E0495F" transform="translate(324,364)"/>
<path d="M0 0 C0.99 0 1.98 0 3 0 C3 2.64 3 5.28 3 8 C3.66 7.67 4.32 7.34 5 7 C7.9375 6.6875 7.9375 6.6875 11 7 C13.39973224 9.32718219 13.9674136 10.66457733 14.29296875 14.015625 C14.25816406 15.08296875 14.22335937 16.1503125 14.1875 17.25 C14.16042969 18.32765625 14.13335937 19.4053125 14.10546875 20.515625 C14.07066406 21.33546875 14.03585937 22.1553125 14 23 C12.68 23 11.36 23 10 23 C9.67 19.04 9.34 15.08 9 11 C7.35 11.33 5.7 11.66 4 12 C3.67 15.63 3.34 19.26 3 23 C2.01 23 1.02 23 0 23 C0 15.41 0 7.82 0 0 Z " fill="#E0455B" transform="translate(279,364)"/>
<path d="M0 0 C1.32 0.33 2.64 0.66 4 1 C4.33 0.67 4.66 0.34 5 0 C8.375 -0.3125 8.375 -0.3125 12 0 C14.43397626 2.31200023 14.9664907 3.65507763 15.29296875 7.015625 C15.25816406 8.08296875 15.22335937 9.1503125 15.1875 10.25 C15.16042969 11.32765625 15.13335937 12.4053125 15.10546875 13.515625 C15.07066406 14.33546875 15.03585937 15.1553125 15 16 C13.68 16 12.36 16 11 16 C10.67 12.04 10.34 8.08 10 4 C8.35 4 6.7 4 5 4 C4.67 7.96 4.34 11.92 4 16 C2.68 16 1.36 16 0 16 C0 10.72 0 5.44 0 0 Z " fill="#E04A60" transform="translate(476,371)"/>
<path d="M0 0 C10.44243986 -0.49140893 10.44243986 -0.49140893 12.84375 1.625 C14.32383583 4.66517629 14.29727318 6.88362244 14.1875 10.25 C14.16042969 11.32765625 14.13335937 12.4053125 14.10546875 13.515625 C14.07066406 14.33546875 14.03585937 15.1553125 14 16 C12.68 16 11.36 16 10 16 C9.67 12.04 9.34 8.08 9 4 C7.35 4.33 5.7 4.66 4 5 C3.67 8.63 3.34 12.26 3 16 C2.01 16 1.02 16 0 16 C0 10.72 0 5.44 0 0 Z " fill="#E0465C" transform="translate(306,371)"/>
<path d="M0 0 C0.99 0 1.98 0 3 0 C4.32 3.3 5.64 6.6 7 10 C8.32 6.7 9.64 3.4 11 0 C12.32 0.33 13.64 0.66 15 1 C13.71636464 4.12835942 12.42174101 7.25205278 11.125 10.375 C10.76019531 11.26445312 10.39539063 12.15390625 10.01953125 13.0703125 C9.66503906 13.92109375 9.31054688 14.771875 8.9453125 15.6484375 C8.45828857 16.82672119 8.45828857 16.82672119 7.96142578 18.02880859 C7 20 7 20 5 22 C3.68 22 2.36 22 1 22 C1 21.01 1 20.02 1 19 C1.99 18.34 2.98 17.68 4 17 C3.45202436 12.6161949 2.29211812 8.88566453 0.62109375 4.83203125 C0 3 0 3 0 0 Z " fill="#DC324C" transform="translate(402,371)"/>
<path d="M0 0 C5.61 0 11.22 0 17 0 C17 0.99 17 1.98 17 3 C14.69 3 12.38 3 10 3 C10 9.27 10 15.54 10 22 C9.01 22 8.02 22 7 22 C7 15.73 7 9.46 7 3 C4.69 3 2.38 3 0 3 C0 2.01 0 1.02 0 0 Z " fill="#DE374E" transform="translate(259,365)"/>
<path d="M0 0 C3 0.1875 3 0.1875 6 1 C8 4 8 4 7.8125 6.5625 C7 9 7 9 4 11 C1.4375 10.8125 1.4375 10.8125 -1 10 C-3 7 -3 7 -2.75 4.4375 C-2 2 -2 2 0 0 Z " fill="#5D5E5E" transform="translate(320,242)"/>
<path d="M0 0 C0.99 0 1.98 0 3 0 C3.36103536 1.81114432 3.71365504 3.62396823 4.0625 5.4375 C4.25972656 6.44683594 4.45695312 7.45617187 4.66015625 8.49609375 C4.77230469 9.32238281 4.88445312 10.14867187 5 11 C4.67 11.33 4.34 11.66 4 12 C3.76636119 13.84891946 3.58696365 15.70488031 3.4375 17.5625 C3.35371094 18.57441406 3.26992188 19.58632813 3.18359375 20.62890625 C3.12300781 21.41136719 3.06242187 22.19382812 3 23 C2.01 23 1.02 23 0 23 C0 15.41 0 7.82 0 0 Z " fill="#DD3048" transform="translate(279,364)"/>
<path d="M0 0 C2.68636205 0.06825602 3.78157595 0.12814359 6.0625 1.625 C7.0625 3.3125 7.0625 3.3125 7.0625 6.3125 C2.4425 6.3125 -2.1775 6.3125 -6.9375 6.3125 C-5.63502704 1.10260817 -5.39081895 0.42784277 0 0 Z " fill="#FAFAFA" transform="translate(464.9375,207.6875)"/>
<path d="M0 0 C2.68636205 0.06825602 3.78157595 0.12814359 6.0625 1.625 C7.0625 3.3125 7.0625 3.3125 7.0625 6.3125 C2.4425 6.3125 -2.1775 6.3125 -6.9375 6.3125 C-5.63502704 1.10260817 -5.39081895 0.42784277 0 0 Z " fill="#FBFBFB" transform="translate(329.9375,207.6875)"/>
<path d="M0 0 C3.82825694 0.03430338 3.82825694 0.03430338 6.125 2.1875 C7.125 4.3125 7.125 4.3125 7.125 6.3125 C2.175 6.3125 -2.775 6.3125 -7.875 6.3125 C-4.29533898 0.34639831 -4.29533898 0.34639831 0 0 Z " fill="#FBFBFB" transform="translate(367.875,207.6875)"/>
<path d="M0 0 C0.99 0 1.98 0 3 0 C3 7.59 3 15.18 3 23 C2.01 23 1.02 23 0 23 C0 15.41 0 7.82 0 0 Z " fill="#DB223E" transform="translate(378,364)"/>
<path d="M0 0 C1.23556641 0.01740234 1.23556641 0.01740234 2.49609375 0.03515625 C3.32238281 0.04417969 4.14867187 0.05320312 5 0.0625 C5.63808594 0.07410156 6.27617187 0.08570313 6.93359375 0.09765625 C6.62109375 2.47265625 6.62109375 2.47265625 5.93359375 5.09765625 C2.08328325 7.66452992 0.34789612 6.93054349 -4.06640625 6.09765625 C-2.99738005 0.14165312 -2.99738005 0.14165312 0 0 Z " fill="#F9F9F9" transform="translate(320.06640625,331.90234375)"/>
<path d="M0 0 C0.66 1.65 1.32 3.3 2 5 C-2.62 5 -7.24 5 -12 5 C-8.79749206 -1.40501587 -6.60124846 -1.24551858 0 0 Z " fill="#F9F9F9" transform="translate(426,320)"/>
<path d="M0 0 C1.32 0 2.64 0 4 0 C4 5.28 4 10.56 4 16 C2.68 16 1.36 16 0 16 C0 10.72 0 5.44 0 0 Z " fill="#E35467" transform="translate(297,371)"/>
<path d="M0 0 C2.33294775 -0.04241723 4.66702567 -0.04092937 7 0 C8 1 8 1 8.0625 4.0625 C8.041875 5.031875 8.02125 6.00125 8 7 C5.29120665 8.35439668 2.99066732 8.06501451 0 8 C0 5.36 0 2.72 0 0 Z " fill="#FAE1E5" transform="translate(362,368)"/>
<path d="M0 0 C0.99 0.66 1.98 1.32 3 2 C3.29296875 4.3828125 3.29296875 4.3828125 3.1875 7.125 C3.16042969 8.03507812 3.13335937 8.94515625 3.10546875 9.8828125 C3.07066406 10.58148438 3.03585937 11.28015625 3 12 C2.01 12 1.02 12 0 12 C-0.33 9.36 -0.66 6.72 -1 4 C-3.64 4 -6.28 4 -9 4 C-9 3.01 -9 2.02 -9 1 C-5.98131566 -0.50934217 -3.32702771 -0.17510672 0 0 Z " fill="#DB2542" transform="translate(395,371)"/>
<path d="M0 0 C1.32 0.33 2.64 0.66 4 1 C4.33 1.99 4.66 2.98 5 4 C4.67 4.33 4.34 4.66 4 5 C3.76636119 6.84891946 3.58696365 8.70488031 3.4375 10.5625 C3.35371094 11.57441406 3.26992188 12.58632813 3.18359375 13.62890625 C3.12300781 14.41136719 3.06242187 15.19382812 3 16 C2.01 16 1.02 16 0 16 C0 10.72 0 5.44 0 0 Z " fill="#DD354D" transform="translate(306,371)"/>
<path d="M0 0 C0.99 0 1.98 0 3 0 C3 5.28 3 10.56 3 16 C2.01 16 1.02 16 0 16 C0 10.72 0 5.44 0 0 Z " fill="#DE2D47" transform="translate(468,371)"/>
<path d="M0 0 C0.04254356 1.99954746 0.04080783 4.00041636 0 6 C-1 7 -1 7 -3.5625 7.0625 C-4.7690625 7.0315625 -4.7690625 7.0315625 -6 7 C-6.12375 6.360625 -6.2475 5.72125 -6.375 5.0625 C-6.684375 4.0415625 -6.684375 4.0415625 -7 3 C-7.66 2.67 -8.32 2.34 -9 2 C-5.5647952 -0.29013653 -4.014669 -0.17842973 0 0 Z " fill="#E04359" transform="translate(395,377)"/>
<path d="M0 0 C2.00993705 3.01490557 2.72623341 5.2149927 3.625 8.6875 C3.88539063 9.68136719 4.14578125 10.67523438 4.4140625 11.69921875 C4.60742188 12.45847656 4.80078125 13.21773438 5 14 C3.68 14 2.36 14 1 14 C0.4423576 12.23413239 -0.09562787 10.46204744 -0.625 8.6875 C-0.92664063 7.70136719 -1.22828125 6.71523438 -1.5390625 5.69921875 C-2 3 -2 3 0 0 Z " fill="#DF3E55" transform="translate(452,369)"/>
<path d="M0 0 C1.125 1.5 1.125 1.5 2 4 C1.57598348 6.7773082 0.81108065 9.29639783 0 12 C-1.32 12 -2.64 12 -4 12 C-4.33 10.68 -4.66 9.36 -5 8 C-4.34 8 -3.68 8 -3 8 C-3 7.01 -3 6.02 -3 5 C-2.34 5 -1.68 5 -1 5 C-0.67 3.35 -0.34 1.7 0 0 Z " fill="#DE3E55" transform="translate(445,375)"/>
<path d="M0 0 C2.29296875 -0.25 2.29296875 -0.25 5 0 C6.80078125 1.75 6.80078125 1.75 8.3125 4 C8.82425781 4.7425 9.33601563 5.485 9.86328125 6.25 C10.23839844 6.8275 10.61351562 7.405 11 8 C7.32579134 7.69381595 6.21864487 7.24228216 3.6875 4.4375 C3.130625 3.633125 2.57375 2.82875 2 2 C1.67 3.98 1.34 5.96 1 8 C0.67 8 0.34 8 0 8 C0 5.36 0 2.72 0 0 Z " fill="#E14F62" transform="translate(327,379)"/>
<path d="M0 0 C0 0.99 0 1.98 0 3 C-4.455 3.495 -4.455 3.495 -9 4 C-9 3.01 -9 2.02 -9 1 C-6.04335481 -0.4783226 -3.25770263 -0.06032783 0 0 Z " fill="#DD354D" transform="translate(395,371)"/>
<path d="M0 0 C-0.6875 2.4375 -0.6875 2.4375 -2 5 C-4.625 5.8125 -4.625 5.8125 -7 6 C-7 5.01 -7 4.02 -7 3 C-4.46815512 0.64276511 -3.52809907 0 0 0 Z " fill="#DC2D46" transform="translate(410,387)"/>
<path d="M0 0 C0.33 0 0.66 0 1 0 C0.6875 3.375 0.6875 3.375 0 7 C-0.99 7.66 -1.98 8.32 -3 9 C-3.66 8.67 -4.32 8.34 -5 8 C-5 7.34 -5 6.68 -5 6 C-4.34 6 -3.68 6 -3 6 C-3 4.35 -3 2.7 -3 1 C-2.34 1.33 -1.68 1.66 -1 2 C-0.67 1.34 -0.34 0.68 0 0 Z " fill="#E14B62" transform="translate(373,369)"/>
<path d="M0 0 C0.66 0.33 1.32 0.66 2 1 C1.67 2.98 1.34 4.96 1 7 C-0.32 6.67 -1.64 6.34 -3 6 C-2.42655063 3.13275314 -2.1385485 2.1385485 0 0 Z " fill="#DC2C46" transform="translate(457,380)"/>
<path d="M0 0 C1.65 0 3.3 0 5 0 C4.67 1.32 4.34 2.64 4 4 C2.35 4 0.7 4 -1 4 C-0.67 2.68 -0.34 1.36 0 0 Z " fill="#FCF2F4" transform="translate(390,380)"/>
<path d="M0 0 C2.88575819 0.39803561 3.82189513 0.79009069 5.75 3.0625 C6.1625 3.701875 6.575 4.34125 7 5 C4.625 4.75 4.625 4.75 2 4 C0.6875 1.9375 0.6875 1.9375 0 0 Z " fill="#DC324A" transform="translate(331,382)"/>
<path d="M0 0 C0 3 0 3 -2.5 5.6875 C-3.325 6.450625 -4.15 7.21375 -5 8 C-5.66 7.67 -6.32 7.34 -7 7 C-4.78071806 4.09197539 -3.07030857 2.04687238 0 0 Z " fill="#5F5F60" transform="translate(384,258)"/>
<path d="M0 0 C0 3 0 3 -1.53125 4.60546875 C-2.1809375 5.12753906 -2.830625 5.64960938 -3.5 6.1875 C-4.1496875 6.71730469 -4.799375 7.24710938 -5.46875 7.79296875 C-5.9740625 8.19128906 -6.479375 8.58960938 -7 9 C-5.64978174 4.58110387 -3.73884332 2.65654657 0 0 Z " fill="#DD324C" transform="translate(9,230)"/>
<path d="M0 0 C1.98 0.495 1.98 0.495 4 1 C3.34 2.65 2.68 4.3 2 6 C1.34 6 0.68 6 0 6 C-1.125 2.25 -1.125 2.25 0 0 Z " fill="#DF4056" transform="translate(413,371)"/>
<path d="M0 0 C2.475 0.495 2.475 0.495 5 1 C4.67 1.99 4.34 2.98 4 4 C2.68 3.67 1.36 3.34 0 3 C0 2.01 0 1.02 0 0 Z " fill="#DC3349" transform="translate(341,383)"/>
<path d="M0 0 C1.5625 1.25 1.5625 1.25 3 3 C2.6875 5.1875 2.6875 5.1875 2 7 C1.01 6.67 0.02 6.34 -1 6 C-0.67 4.02 -0.34 2.04 0 0 Z " fill="#DE3D56" transform="translate(458,374)"/>
<path d="M0 0 C1.32 0.33 2.64 0.66 4 1 C3.67 2.65 3.34 4.3 3 6 C2.34 6 1.68 6 1 6 C0.67 4.02 0.34 2.04 0 0 Z " fill="#DF4357" transform="translate(435,365)"/>
</svg>
